<svg xmlns="http://www.w3.org/2000/svg" viewBox="0 0 32 32">
  <!-- OpenBook mark: an open book with linked-notes dots on the brand blue
       (hsl(207 76% 47%) = #1d7dd3). Static default of the themed OpenBookMark. -->
  <rect width="32" height="32" rx="7" fill="#1d7dd3"/>
  <path
    d="M16 9.6c-1.9-1.5-4.5-2.1-7.3-2.1-.4 0-.7.3-.7.7v12.6c0 .4.3.7.7.7 2.8 0 5.4.6 7.3 2.1 1.9-1.5 4.5-2.1 7.3-2.1.4 0 .7-.3.7-.7V8.2c0-.4-.3-.7-.7-.7-2.8 0-5.4.6-7.3 2.1z"
    fill="#fff"
    opacity="0.97"
  />
  <path d="M16 9.6v13.8" stroke="#1d7dd3" stroke-width="1.4" stroke-linecap="round"/>
  <g stroke="#145e9e" stroke-width="0.7" stroke-opacity="0.55">
    <line x1="19.4" y1="12.4" x2="22.3" y2="14.3"/>
    <line x1="22.3" y1="14.3" x2="19.9" y2="16.6"/>
  </g>
  <g fill="#145e9e">
    <circle cx="19.4" cy="12.4" r="1.15"/>
    <circle cx="22.3" cy="14.3" r="1.15"/>
    <circle cx="19.9" cy="16.6" r="1.15"/>
  </g>
</svg>
